<svg width="13" height="11" viewBox="0 0 13 11" fill="none" xmlns="http://www.w3.org/2000/svg">
<path d="M6.03961 1.08156C6.18928 0.620904 6.84099 0.620902 6.99066 1.08156L7.61121 2.99139C7.81202 3.60943 8.38795 4.02786 9.03779 4.02786H11.0459C11.5303 4.02786 11.7317 4.64767 11.3398 4.93237L9.7152 6.11271C9.18947 6.49468 8.96948 7.17173 9.17029 7.78976L9.79083 9.69959C9.94051 10.1602 9.41327 10.5433 9.02141 10.2586L7.39681 9.07827C6.87108 8.6963 6.15919 8.69631 5.63346 9.07827L4.00886 10.2586C3.617 10.5433 3.08976 10.1603 3.23944 9.69959L3.85998 7.78976C4.06079 7.17173 3.84081 6.49468 3.31507 6.11271L1.69047 4.93237C1.29862 4.64767 1.5 4.02786 1.98437 4.02786H3.99248C4.64232 4.02786 5.21826 3.60942 5.41907 2.99139L6.03961 1.08156Z" stroke="#FEEA35" fill="#FEEA35"/>
</svg>
