<svg width="45" height="45" viewBox="0 0 45 45" fill="none" xmlns="http://www.w3.org/2000/svg">
<path d="M26.0156 30.2344H7.03125" stroke="#E52500" stroke-width="2" stroke-linecap="round" stroke-linejoin="round"/>
<path d="M37.9688 30.2344H33.0469" stroke="#E52500" stroke-width="2" stroke-linecap="round" stroke-linejoin="round"/>
<path d="M29.5312 33.75C31.4729 33.75 33.0469 32.176 33.0469 30.2344C33.0469 28.2927 31.4729 26.7188 29.5312 26.7188C27.5896 26.7188 26.0156 28.2927 26.0156 30.2344C26.0156 32.176 27.5896 33.75 29.5312 33.75Z" stroke="#E52500" stroke-width="2" stroke-linecap="round" stroke-linejoin="round"/>
<path d="M14.7656 14.7656H7.03125" stroke="#E52500" stroke-width="2" stroke-linecap="round" stroke-linejoin="round"/>
<path d="M37.9688 14.7656H21.7969" stroke="#E52500" stroke-width="2" stroke-linecap="round" stroke-linejoin="round"/>
<path d="M18.2812 18.2812C20.2229 18.2812 21.7969 16.7073 21.7969 14.7656C21.7969 12.824 20.2229 11.25 18.2812 11.25C16.3396 11.25 14.7656 12.824 14.7656 14.7656C14.7656 16.7073 16.3396 18.2812 18.2812 18.2812Z" stroke="#E52500" stroke-width="2" stroke-linecap="round" stroke-linejoin="round"/>
</svg>
