<svg width="30" height="46" viewBox="0 0 30 46" fill="none" xmlns="http://www.w3.org/2000/svg">
<g filter="url(#filter0_d_71_1291)">
<path d="M30.6003 22.3142L27.381 25.1237L28.3453 29.3066C28.3964 29.5253 28.3818 29.7541 28.3035 29.9646C28.2251 30.175 28.0865 30.3577 27.9049 30.4898C27.7233 30.6219 27.5068 30.6975 27.2825 30.7072C27.0582 30.7169 26.8359 30.6602 26.6436 30.5443L22.9954 28.3315L19.3549 30.5443C19.1626 30.6602 18.9404 30.7169 18.7161 30.7072C18.4917 30.6975 18.2752 30.6219 18.0936 30.4898C17.9121 30.3577 17.7734 30.175 17.6951 29.9646C17.6168 29.7541 17.6022 29.5253 17.6532 29.3066L18.6162 25.128L15.3962 22.3142C15.2259 22.1673 15.1027 21.9734 15.0422 21.7568C14.9816 21.5402 14.9864 21.3105 15.0558 21.0966C15.1253 20.8827 15.2563 20.6941 15.4326 20.5543C15.6088 20.4146 15.8223 20.33 16.0465 20.3112L20.2907 19.9436L21.9475 15.992C22.034 15.7846 22.1799 15.6075 22.3669 15.4829C22.5539 15.3583 22.7735 15.2919 22.9982 15.2919C23.2229 15.2919 23.4425 15.3583 23.6295 15.4829C23.8165 15.6075 23.9624 15.7846 24.0489 15.992L25.7107 19.9436L29.9535 20.3112C30.1777 20.33 30.3912 20.4146 30.5674 20.5543C30.7437 20.6941 30.8747 20.8827 30.9442 21.0966C31.0136 21.3105 31.0184 21.5402 30.9578 21.7568C30.8973 21.9734 30.7741 22.1673 30.6038 22.3142H30.6003Z" fill="#FEEA35"/>
</g>
<defs>
<filter id="filter0_d_71_1291" x="0.59222" y="0.88409" width="44.8156" height="44.2319" filterUnits="userSpaceOnUse" color-interpolation-filters="sRGB">
<feFlood flood-opacity="0" result="BackgroundImageFix"/>
<feColorMatrix in="SourceAlpha" type="matrix" values="0 0 0 0 0 0 0 0 0 0 0 0 0 0 0 0 0 0 127 0" result="hardAlpha"/>
<feOffset/>
<feGaussianBlur stdDeviation="7.20389"/>
<feComposite in2="hardAlpha" operator="out"/>
<feColorMatrix type="matrix" values="0 0 0 0 0.996078 0 0 0 0 0.917647 0 0 0 0 0.207843 0 0 0 0.25 0"/>
<feBlend mode="normal" in2="BackgroundImageFix" result="effect1_dropShadow_71_1291"/>
<feBlend mode="normal" in="SourceGraphic" in2="effect1_dropShadow_71_1291" result="shape"/>
</filter>
</defs>
</svg>
